<mxfile host="Electron" agent="Mozilla/5.0 (Windows NT 10.0; Win64; x64) AppleWebKit/537.36 (KHTML, like Gecko) draw.io/26.1.1 Chrome/132.0.6834.210 Electron/34.3.3 Safari/537.36" version="26.1.1">
  <diagram id="07fea595-8f29-1299-0266-81d95cde20df" name="Page-1">
    <mxGraphModel dx="2738" dy="-243" grid="1" gridSize="10" guides="1" tooltips="1" connect="1" arrows="1" fold="1" page="1" pageScale="1" pageWidth="1169" pageHeight="827" background="none" math="0" shadow="0">
      <root>
        <mxCell id="0" />
        <mxCell id="1" parent="0" />
        <mxCell id="ekk3fz616l2sMeVtVaYW-658" value="" style="shape=hexagon;perimeter=hexagonPerimeter2;whiteSpace=wrap;html=1;shadow=0;labelBackgroundColor=none;strokeColor=#82b366;fillColor=#d5e8d4;fontFamily=Helvetica;fontSize=23;align=center;strokeWidth=3;" parent="1" vertex="1">
          <mxGeometry x="158" y="2465" width="696" height="580" as="geometry" />
        </mxCell>
        <mxCell id="644" value="" style="shape=hexagon;perimeter=hexagonPerimeter2;whiteSpace=wrap;html=1;shadow=0;labelBackgroundColor=none;strokeColor=#b85450;fillColor=#f8cecc;fontFamily=Helvetica;fontSize=23;align=center;strokeWidth=3;" parent="1" vertex="1">
          <mxGeometry x="260" y="2550" width="492" height="410" as="geometry" />
        </mxCell>
        <mxCell id="ekk3fz616l2sMeVtVaYW-657" value="&lt;font style=&quot;color: rgb(0, 0, 0);&quot;&gt;&lt;span style=&quot;font-size: 30px;&quot;&gt;&lt;b style=&quot;&quot;&gt;Domini&lt;/b&gt;&lt;/span&gt;&lt;/font&gt;" style="shape=hexagon;perimeter=hexagonPerimeter2;whiteSpace=wrap;html=1;shadow=0;labelBackgroundColor=none;strokeColor=#6c8ebf;fillColor=#dae8fc;fontFamily=Helvetica;fontSize=23;align=center;strokeWidth=3;" parent="1" vertex="1">
          <mxGeometry x="349.3" y="2625" width="313.41" height="260" as="geometry" />
        </mxCell>
        <mxCell id="ekk3fz616l2sMeVtVaYW-659" value="&lt;b&gt;&lt;font style=&quot;font-size: 30px;&quot;&gt;Aplicació&lt;/font&gt;&lt;/b&gt;" style="text;html=1;align=center;verticalAlign=middle;whiteSpace=wrap;rounded=0;fontSize=23;" parent="1" vertex="1">
          <mxGeometry x="476" y="2570" width="60" height="30" as="geometry" />
        </mxCell>
        <mxCell id="ekk3fz616l2sMeVtVaYW-660" value="&lt;span style=&quot;font-size: 30px;&quot;&gt;&lt;b&gt;Infraestructura&lt;/b&gt;&lt;/span&gt;" style="text;html=1;align=center;verticalAlign=middle;whiteSpace=wrap;rounded=0;fontSize=23;" parent="1" vertex="1">
          <mxGeometry x="476" y="2490" width="60" height="30" as="geometry" />
        </mxCell>
        <mxCell id="ekk3fz616l2sMeVtVaYW-661" value="Models" style="text;html=1;align=center;verticalAlign=middle;whiteSpace=wrap;rounded=0;fontStyle=1;fontSize=23;rotation=60;" parent="1" vertex="1">
          <mxGeometry x="570" y="2680" width="60" height="30" as="geometry" />
        </mxCell>
        <mxCell id="ekk3fz616l2sMeVtVaYW-665" value="Interfícies" style="text;html=1;align=center;verticalAlign=middle;whiteSpace=wrap;rounded=0;fontStyle=1;fontSize=23;rotation=-60;" parent="1" vertex="1">
          <mxGeometry x="380" y="2680" width="60" height="30" as="geometry" />
        </mxCell>
        <mxCell id="ekk3fz616l2sMeVtVaYW-668" value="Serveis" style="text;html=1;align=center;verticalAlign=middle;whiteSpace=wrap;rounded=0;fontStyle=1;fontSize=23;rotation=0;" parent="1" vertex="1">
          <mxGeometry x="476" y="2910" width="60" height="30" as="geometry" />
        </mxCell>
        <mxCell id="ekk3fz616l2sMeVtVaYW-669" value="Repositoris" style="text;html=1;align=center;verticalAlign=middle;whiteSpace=wrap;rounded=0;fontStyle=1;fontSize=23;rotation=60;" parent="1" vertex="1">
          <mxGeometry x="700" y="2620" width="60" height="30" as="geometry" />
        </mxCell>
        <mxCell id="ekk3fz616l2sMeVtVaYW-670" value="API REST" style="text;html=1;align=center;verticalAlign=middle;whiteSpace=wrap;rounded=0;fontStyle=1;fontSize=23;rotation=-60;" parent="1" vertex="1">
          <mxGeometry x="250" y="2620" width="60" height="30" as="geometry" />
        </mxCell>
        <mxCell id="ekk3fz616l2sMeVtVaYW-672" value="Integracions" style="text;html=1;align=center;verticalAlign=middle;whiteSpace=wrap;rounded=0;fontStyle=1;fontSize=23;rotation=60;" parent="1" vertex="1">
          <mxGeometry x="250" y="2855" width="60" height="30" as="geometry" />
        </mxCell>
        <mxCell id="ekk3fz616l2sMeVtVaYW-673" value="Helpers" style="text;html=1;align=center;verticalAlign=middle;whiteSpace=wrap;rounded=0;fontStyle=1;fontSize=23;rotation=-60;" parent="1" vertex="1">
          <mxGeometry x="700" y="2855" width="60" height="30" as="geometry" />
        </mxCell>
        <mxCell id="ekk3fz616l2sMeVtVaYW-674" value="BBDD" style="shape=cylinder3;whiteSpace=wrap;html=1;boundedLbl=1;backgroundOutline=1;size=15;labelBackgroundColor=none;fillColor=#d5e8d4;strokeColor=#82b366;fontStyle=1;fontSize=23;" parent="1" vertex="1">
          <mxGeometry x="850" y="2410" width="130" height="170" as="geometry" />
        </mxCell>
        <mxCell id="ekk3fz616l2sMeVtVaYW-675" value="" style="shape=flexArrow;endArrow=classic;startArrow=classic;html=1;rounded=0;exitX=0.862;exitY=0.224;exitDx=0;exitDy=0;exitPerimeter=0;fillColor=#fff2cc;strokeColor=#d6b656;" parent="1" source="ekk3fz616l2sMeVtVaYW-658" target="ekk3fz616l2sMeVtVaYW-674" edge="1">
          <mxGeometry width="100" height="100" relative="1" as="geometry">
            <mxPoint x="790" y="2620" as="sourcePoint" />
            <mxPoint x="890" y="2520" as="targetPoint" />
          </mxGeometry>
        </mxCell>
        <mxCell id="ekk3fz616l2sMeVtVaYW-676" value="Controladors" style="text;html=1;align=center;verticalAlign=middle;whiteSpace=wrap;rounded=0;fontStyle=1;fontSize=23;rotation=0;" parent="1" vertex="1">
          <mxGeometry x="476" y="2990" width="60" height="30" as="geometry" />
        </mxCell>
        <mxCell id="ekk3fz616l2sMeVtVaYW-677" value="&lt;b&gt;&lt;font style=&quot;font-size: 23px;&quot;&gt;Frontend&lt;/font&gt;&lt;/b&gt;" style="shape=note;whiteSpace=wrap;html=1;backgroundOutline=1;darkOpacity=0.05;fillColor=#ffe6cc;strokeColor=#d79b00;" parent="1" vertex="1">
          <mxGeometry x="-30" y="2450" width="150" height="210" as="geometry" />
        </mxCell>
        <mxCell id="ekk3fz616l2sMeVtVaYW-678" value="" style="shape=flexArrow;endArrow=classic;startArrow=classic;html=1;rounded=0;exitX=0;exitY=0;exitDx=150;exitDy=120;exitPerimeter=0;fillColor=#fff2cc;strokeColor=#d6b656;entryX=0.132;entryY=0.231;entryDx=0;entryDy=0;entryPerimeter=0;" parent="1" source="ekk3fz616l2sMeVtVaYW-677" target="ekk3fz616l2sMeVtVaYW-658" edge="1">
          <mxGeometry width="100" height="100" relative="1" as="geometry">
            <mxPoint x="80" y="2600" as="sourcePoint" />
            <mxPoint x="212" y="2523" as="targetPoint" />
          </mxGeometry>
        </mxCell>
        <mxCell id="ekk3fz616l2sMeVtVaYW-679" value="&lt;b&gt;&lt;font style=&quot;font-size: 23px;&quot;&gt;Servei de correu&lt;/font&gt;&lt;/b&gt;" style="ellipse;shape=cloud;whiteSpace=wrap;html=1;fillColor=#dae8fc;strokeColor=#6c8ebf;" parent="1" vertex="1">
          <mxGeometry x="-110" y="2780" width="180" height="130" as="geometry" />
        </mxCell>
        <mxCell id="ekk3fz616l2sMeVtVaYW-680" value="" style="shape=flexArrow;endArrow=classic;startArrow=classic;html=1;rounded=0;fillColor=#fff2cc;strokeColor=#d6b656;exitX=0.883;exitY=0.446;exitDx=0;exitDy=0;exitPerimeter=0;" parent="1" source="ekk3fz616l2sMeVtVaYW-679" target="ekk3fz616l2sMeVtVaYW-658" edge="1">
          <mxGeometry width="100" height="100" relative="1" as="geometry">
            <mxPoint x="120" y="2990" as="sourcePoint" />
            <mxPoint x="250" y="3074" as="targetPoint" />
          </mxGeometry>
        </mxCell>
        <mxCell id="ekk3fz616l2sMeVtVaYW-681" value="Catàlegs literaris" style="ellipse;shape=cloud;whiteSpace=wrap;html=1;fillColor=#dae8fc;strokeColor=#6c8ebf;fontStyle=1;fontSize=23;" parent="1" vertex="1">
          <mxGeometry x="-140" y="2928" width="280" height="180" as="geometry" />
        </mxCell>
        <mxCell id="ekk3fz616l2sMeVtVaYW-682" value="" style="shape=flexArrow;endArrow=classic;startArrow=classic;html=1;rounded=0;fillColor=#fff2cc;strokeColor=#d6b656;entryX=0.129;entryY=0.752;entryDx=0;entryDy=0;entryPerimeter=0;exitX=0.889;exitY=0.294;exitDx=0;exitDy=0;exitPerimeter=0;" parent="1" source="ekk3fz616l2sMeVtVaYW-681" target="ekk3fz616l2sMeVtVaYW-658" edge="1">
          <mxGeometry width="100" height="100" relative="1" as="geometry">
            <mxPoint x="114" y="2893" as="sourcePoint" />
            <mxPoint x="224" y="2858" as="targetPoint" />
          </mxGeometry>
        </mxCell>
        <mxCell id="xtuklxPhUmvN2rhXMyXe-644" value="Data types" style="text;html=1;align=center;verticalAlign=middle;whiteSpace=wrap;rounded=0;fontStyle=1;fontSize=23;rotation=0;" vertex="1" parent="1">
          <mxGeometry x="451" y="2830" width="110" height="30" as="geometry" />
        </mxCell>
        <mxCell id="xtuklxPhUmvN2rhXMyXe-645" value="&lt;b&gt;&lt;font style=&quot;font-size: 23px;&quot;&gt;Emmagatzematge fitxers&lt;/font&gt;&lt;/b&gt;" style="ellipse;shape=cloud;whiteSpace=wrap;html=1;fillColor=#dae8fc;strokeColor=#6c8ebf;" vertex="1" parent="1">
          <mxGeometry x="20.000000000000014" y="3080" width="260.7" height="200" as="geometry" />
        </mxCell>
        <mxCell id="xtuklxPhUmvN2rhXMyXe-646" value="" style="shape=flexArrow;endArrow=classic;startArrow=classic;html=1;rounded=0;fillColor=#fff2cc;strokeColor=#d6b656;exitX=0.555;exitY=0.158;exitDx=0;exitDy=0;exitPerimeter=0;" edge="1" parent="1" source="xtuklxPhUmvN2rhXMyXe-645" target="ekk3fz616l2sMeVtVaYW-658">
          <mxGeometry width="100" height="100" relative="1" as="geometry">
            <mxPoint x="159" y="3053" as="sourcePoint" />
            <mxPoint x="276" y="2947" as="targetPoint" />
          </mxGeometry>
        </mxCell>
      </root>
    </mxGraphModel>
  </diagram>
</mxfile>
